<svg id="background" xmlns="http://www.w3.org/2000/svg" xmlns:xlink="http://www.w3.org/1999/xlink" viewBox="0 0 5952.76 545.4"><defs><style>.cls-1,.cls-10,.cls-4{fill:none;}.cls-2{clip-path:url(#clip-path);}.cls-3,.cls-5,.cls-6,.cls-8,.cls-9{fill:#fff;}.cls-10,.cls-3,.cls-4,.cls-5,.cls-8,.cls-9{stroke:#1b365d;stroke-width:5.67px;}.cls-10,.cls-3,.cls-4,.cls-9{stroke-miterlimit:10;}.cls-5,.cls-8{stroke-linejoin:round;}.cls-7{fill:#1b365d;}.cls-10,.cls-8,.cls-9{stroke-linecap:round;}.cls-11{clip-path:url(#clip-path-2);}.cls-12{clip-path:url(#clip-path-3);}</style><clipPath id="clip-path"><rect class="cls-1" y="-1.68" width="4762.2" height="547.09"/></clipPath><clipPath id="clip-path-2"><rect class="cls-1" x="4762.2" width="1190.55" height="545.4"/></clipPath><clipPath id="clip-path-3"><rect class="cls-1" x="4762.2" y="-1.68" width="4762.2" height="547.09"/></clipPath></defs><title>email scroller-bg</title><g class="cls-2"><path class="cls-3" d="M3716,421.27S3870.5,290.21,3936.5,290.21c77.82,0,262.83,138.83,262.83,138.83"/><path class="cls-3" d="M3547,423.21s85.62-69.66,221.29-76.66,262,82.49,262,82.49"/><line class="cls-4" x1="3546.96" y1="429.04" x2="3546.96" y2="374.2"/><polygon class="cls-3" points="3546.96 323.88 3570.89 369.55 3561.8 368.91 3580.89 407.96 3546.96 407.92 3513.04 407.92 3532.07 368.99 3523.19 368.88 3546.96 323.88"/><line class="cls-4" x1="4443.9" y1="429.04" x2="4443.9" y2="374.2"/><polygon class="cls-3" points="4443.9 323.88 4467.84 369.55 4458.74 368.91 4477.84 407.96 4443.9 407.92 4409.98 407.92 4429.01 368.99 4420.13 368.88 4443.9 323.88"/><line class="cls-4" x1="3683.04" y1="429.04" x2="3683.04" y2="381.67"/><polygon class="cls-3" points="3683.03 338.21 3703.71 377.66 3695.86 377.11 3712.35 410.83 3683.03 410.8 3653.74 410.8 3670.18 377.18 3662.51 377.08 3683.03 338.21"/><line class="cls-4" x1="3740.71" y1="429.04" x2="3740.71" y2="401.84"/><polygon class="cls-3" points="3740.71 376.88 3752.58 399.53 3748.07 399.22 3757.54 418.59 3740.71 418.56 3723.88 418.56 3733.32 399.26 3728.92 399.2 3740.71 376.88"/><line class="cls-4" x1="4503.9" y1="429.04" x2="4503.9" y2="401.84"/><polygon class="cls-3" points="4503.9 376.88 4515.77 399.53 4511.26 399.22 4520.73 418.59 4503.9 418.56 4487.07 418.56 4496.51 399.26 4492.1 399.2 4503.9 376.88"/><polyline class="cls-5" points="3427 429.04 3427 397.21 3439.96 410.17 3450 429.04 3463.5 384.21 3479.5 384.21 3486.5 429.04"/><polyline class="cls-5" points="3233 429.04 3233 371.71 3264.5 371.71 3267 381.21 3290.5 384.21 3308.5 332.71 3344 329.08 3368 385.21 3370 429.04"/><polyline class="cls-5" points="3074.5 429.04 3074.5 299.71 3098 323.21 3098 337.63 3145 337.63 3158.79 351.42 3201 375.21 3201 429.04"/><polyline class="cls-4" points="2841.38 175.35 2855.26 159.27 2858.19 174.31 2881.95 171.39 2874.53 187.4 2889.95 188.46 2879.96 209.78 2905.69 216.79 2890.64 231.23 2919.51 239.69 2903.75 249.64"/><path class="cls-5" d="M2795.91,222c.31,1.46,9,4.67,9.42,5.89,7.05,18.28,22.54,9.44,22.62,9.42,1.71-.46,2.61,7.29,2.74,8.19.55,4,1.56,8.94-2.57,11.33a15.66,15.66,0,0,1-5.44,1.62c-4.84.78-9.74,1.36-14.43,2.79s-9.24,3.78-12.38,7.54c-2.69,3.22-4.2,8,.58,9.81,2.49,1,5.27.27,7.86-.34a136.83,136.83,0,0,1,27-3.67,1.31,1.31,0,0,1,1.16.34,1.28,1.28,0,0,1,.2.72c.77,10.55,1.07,20.94,5.18,30.86.93,2.25,6.06,15.4,8.52,15.62,0,0,58,4.63,67.63,6.94,53.47-5.83,74.31-32.57,71.4-33.1-58.28-.4-98.69-65.42-105.46-86.2-4.67-41.6-23.05-36.31-38.58-34.43-59.69,5.73-47.47,37.69-47.47,37.69Z"/><path class="cls-5" d="M2843.6,193.47a3.76,3.76,0,1,0,7.42-1.21Z"/><path class="cls-6" d="M2795.91,222l9.42,5.89,5.53-8.95s26.95,6,33.78-10"/><path class="cls-7" d="M2797.41,219.62l9.43,5.89-3.92.91,5.53-8.95a2.83,2.83,0,0,1,3-1.29h0c1.32.39,2.88.74,4.35,1s3,.51,4.52.68a42.79,42.79,0,0,0,9.12.1,23.46,23.46,0,0,0,8.71-2.49,15.32,15.32,0,0,0,6.46-6.51,16,16,0,0,1-5.69,7.7,25.51,25.51,0,0,1-9,4.09,46.84,46.84,0,0,1-9.78,1.36c-1.64.07-3.29.06-4.93,0s-3.26-.18-5-.43h0l3-1.27-5.53,9a2.83,2.83,0,0,1-3.9.92h0l-9.42-5.89Z"/><path class="cls-8" d="M2848.56,261.74A136.9,136.9,0,0,0,2818,271.87a40.55,40.55,0,0,0-8.86,5.26,7.34,7.34,0,0,0-2.47,3.14,5.44,5.44,0,0,0,1.57,5.4,10.18,10.18,0,0,0,5.29,2.47c12.41,2.35,25-8.24,37.09-4.71"/><rect class="cls-3" x="2756.89" y="302.21" width="217.5" height="126.83"/><polyline class="cls-3" points="2929.5 429.04 2929.5 231.05 3022.5 231.05 3022.5 429.04"/><polyline class="cls-3" points="2648 429.04 2648 246.21 2791 246.21 2791 429.04"/><polyline class="cls-3" points="2485.33 277.21 2485.33 203.8 2599.33 203.8 2599.33 429.04"/><polyline class="cls-3" points="2424 429.04 2424 277.21 2498 277.21 2498 429.04"/><polyline class="cls-3" points="2223.33 429.04 2223.33 359.65 2279.33 359.65 2279.33 429.04"/><path class="cls-4" d="M1640.63,246.26a35.84,35.84,0,0,0-63.73-22.51,47.54,47.54,0,0,0-89.74-8.51,35.84,35.84,0,1,0-18,66.86h139.85v-.26A35.84,35.84,0,0,0,1640.63,246.26Z"/><polyline class="cls-4" points="22 429.04 22 361.21 81 361.21 81 429.04"/><polyline class="cls-4" points="95 429.04 95 195.21 187 195.21 187 429.04"/><polyline class="cls-4" points="187 223.21 236 223.21 236 429.04"/><polyline class="cls-4" points="277 429.04 277 302.21 375 302.21 375 429.04"/><polyline class="cls-4" points="375 354.21 567 354.21 567 429.04"/><polyline class="cls-4" points="523 354.21 523 182.21 590 182.21 590 426.21"/><path class="cls-4" d="M480,206.71A36.49,36.49,0,0,0,423.85,176a53.64,53.64,0,0,0-102.1-5.2,36.5,36.5,0,0,0,6.34,72.44h116.5v0A36.5,36.5,0,0,0,480,206.71Z"/><path class="cls-4" d="M4109.92,203.47a36.49,36.49,0,0,0-56.17-30.74,53.64,53.64,0,0,0-102.11-5.2A36.5,36.5,0,0,0,3958,240h116.5v0A36.49,36.49,0,0,0,4109.92,203.47Z"/><polyline class="cls-4" points="653 429.04 653 383.21 701 335.21 747.91 382.13 747.91 429.04"/><polyline class="cls-4" points="727 361.21 727 189.59 916 189.59 916 429.04"/><polyline class="cls-4" points="956 429.04 956 293.21 1044 293.21 1044 429.04"/><line class="cls-4" x1="1113" y1="431.63" x2="1113" y2="391.63"/><path class="cls-3" d="M1113,349.21c15,0,22,21,22,45s-22,22-22,22-22,2-22-22S1098,349.21,1113,349.21Z"/><line class="cls-4" x1="1148.42" y1="431.63" x2="1148.42" y2="391.63"/><path class="cls-3" d="M1148.42,365.63c11.33,0,16.61,15.86,16.61,34s-16.61,16.61-16.61,16.61-16.61,1.51-16.61-16.61S1137.09,365.63,1148.42,365.63Z"/><line class="cls-4" x1="1196.95" y1="431.63" x2="1196.95" y2="376.22"/><path class="cls-3" d="M1197,340.21c15.69,0,23,22,23,47.07s-23,23-23,23-23,2.09-23-23S1181.26,340.21,1197,340.21Z"/><line class="cls-4" x1="1672.42" y1="431.63" x2="1672.42" y2="391.63"/><path class="cls-3" d="M1672.42,349.21c15,0,22,21,22,45s-22,22-22,22-22,2-22-22S1657.42,349.21,1672.42,349.21Z"/><line class="cls-4" x1="1707.83" y1="431.63" x2="1707.83" y2="391.63"/><path class="cls-3" d="M1707.83,365.63c11.33,0,16.62,15.86,16.62,34s-16.62,16.61-16.62,16.61-16.61,1.51-16.61-16.61S1696.51,365.63,1707.83,365.63Z"/><line class="cls-4" x1="2133.08" y1="431.63" x2="2133.08" y2="391.63"/><path class="cls-3" d="M2133.08,349.21c15,0,22,21,22,45s-22,22-22,22-22,2-22-22S2118.08,349.21,2133.08,349.21Z"/><line class="cls-4" x1="2168.5" y1="431.63" x2="2168.5" y2="391.63"/><path class="cls-3" d="M2168.5,365.63c11.33,0,16.61,15.86,16.61,34s-16.61,16.61-16.61,16.61-16.61,1.51-16.61-16.61S2157.17,365.63,2168.5,365.63Z"/><line class="cls-4" x1="1800.53" y1="431.63" x2="1800.53" y2="391.63"/><path class="cls-3" d="M1800.53,365.63c11.33,0,16.61,15.86,16.61,34s-16.61,16.61-16.61,16.61-16.61,1.51-16.61-16.61S1789.2,365.63,1800.53,365.63Z"/><line class="cls-4" x1="1841.23" y1="431.63" x2="1841.23" y2="404.37"/><path class="cls-3" d="M1841.23,382.73c8.59,0,12.6,12,12.6,25.79s-12.6,12.61-12.6,12.61-12.61,1.14-12.61-12.61S1832.63,382.73,1841.23,382.73Z"/><line class="cls-4" x1="1756.36" y1="431.63" x2="1756.36" y2="376.22"/><path class="cls-3" d="M1756.36,349.21c13.68,0,20.06,19.15,20.06,41s-20.06,20.06-20.06,20.06-20,1.82-20-20.06S1742.69,349.21,1756.36,349.21Z"/><polyline class="cls-3" points="1219.96 429.04 1307.39 341.61 1346.46 380.67"/><polyline class="cls-9" points="1323.14 398.07 1471 250.21 1650.41 429.63"/><polyline class="cls-10" points="1433.33 293.21 1457.81 317.69 1477.47 298.02 1516.33 336.88 1537 316.21"/><polyline class="cls-9" points="1866.67 410.33 1917.35 359.65 1966.02 408.31"/><line class="cls-3" x1="1883.33" y1="429.04" x2="1883.33" y2="393.99"/><line class="cls-3" x1="1950.67" y1="429.04" x2="1950.67" y2="393.99"/><line class="cls-4" x1="4224.08" y1="431.63" x2="4224.08" y2="391.63"/><path class="cls-3" d="M4224.08,365.63c11.33,0,16.61,15.86,16.61,34s-16.61,16.61-16.61,16.61-16.61,1.51-16.61-16.61S4212.75,365.63,4224.08,365.63Z"/><path class="cls-3" d="M4264.78,382.73c8.59,0,12.6,12,12.6,25.79s-12.6,12.61-12.6,12.61-12.61,1.14-12.61-12.61S4256.18,382.73,4264.78,382.73Z"/><polyline class="cls-9" points="4290.22 410.33 4340.9 359.65 4389.57 408.31"/><line class="cls-3" x1="4306.88" y1="429.04" x2="4306.88" y2="393.99"/><line class="cls-3" x1="4374.22" y1="429.04" x2="4374.22" y2="393.99"/><polyline class="cls-9" points="1988.08 410.33 2038.77 359.65 2087.43 408.31"/><line class="cls-3" x1="2004.75" y1="429.04" x2="2004.75" y2="393.99"/><line class="cls-3" x1="2072.08" y1="429.04" x2="2072.08" y2="393.99"/><path class="cls-4" d="M1957.8,211.81s-6-15.75-21.78,0c-15.75-15.75-21.77,0-21.77,0"/><path class="cls-4" d="M1995.8,234.55s-6-15.75-21.78,0c-15.75-15.75-21.77,0-21.77,0"/><path class="cls-4" d="M2048.25,203.8s-7-18.17-25.13,0c-18.17-18.17-25.12,0-25.12,0"/><path class="cls-4" d="M3652.15,222.47s-3-7.87-10.88,0c-7.88-7.87-10.89,0-10.89,0"/><path class="cls-4" d="M3711.93,247s-6-15.75-21.78,0c-15.75-15.75-21.77,0-21.77,0"/><path class="cls-4" d="M3739.25,214.2s-3.47-9.09-12.56,0c-9.08-9.09-12.56,0-12.56,0"/><polyline class="cls-3" points="2262 429.04 2262 327.21 2348.67 327.21 2348.67 429.63"/><line class="cls-4" x1="3580.89" y1="429.04" x2="3580.89" y2="389.04"/><polygon class="cls-3" points="3580.89 363.04 3605.64 413.67 3580.89 413.64 3556.15 413.64 3580.89 363.04"/><line class="cls-4" x1="3630.37" y1="429.04" x2="3630.37" y2="398.75"/><line class="cls-4" x1="4561.37" y1="429.04" x2="4561.37" y2="398.75"/><polygon class="cls-3" points="3630.37 350.55 3649.12 417.4 3630.37 417.38 3611.64 417.38 3630.37 350.55"/><polygon class="cls-3" points="4561.36 350.55 4580.1 417.4 4561.36 417.38 4542.63 417.38 4561.36 350.55"/><polyline class="cls-4" points="4637.39 429.04 4637.39 261.74 4731.88 261.74 4731.88 431.63"/><rect class="cls-6" y="429.04" width="4762.2" height="81.37"/><line class="cls-4" y1="429.04" x2="4762.2" y2="429.04"/></g><g class="cls-11"><g class="cls-12"><polyline class="cls-4" points="4784.2 429.04 4784.2 361.21 4843.2 361.21 4843.2 429.04"/><polyline class="cls-4" points="4857.2 429.04 4857.2 195.21 4949.2 195.21 4949.2 429.04"/><polyline class="cls-4" points="4949.2 223.21 4998.2 223.21 4998.2 429.04"/><polyline class="cls-4" points="5039.2 429.04 5039.2 302.21 5137.2 302.21 5137.2 429.04"/><polyline class="cls-4" points="5137.2 354.21 5329.2 354.21 5329.2 429.04"/><polyline class="cls-4" points="5285.2 354.21 5285.2 182.21 5352.2 182.21 5352.2 426.21"/><path class="cls-4" d="M5242.23,206.71A36.49,36.49,0,0,0,5186.06,176a53.64,53.64,0,0,0-102.11-5.2,36.5,36.5,0,0,0,6.35,72.44h116.5v0A36.5,36.5,0,0,0,5242.23,206.71Z"/><polyline class="cls-4" points="5415.2 429.04 5415.2 383.21 5463.2 335.21 5510.12 382.13 5510.12 429.04"/><polyline class="cls-4" points="5489.2 361.21 5489.2 189.59 5678.2 189.59 5678.2 429.04"/><polyline class="cls-4" points="5718.2 429.04 5718.2 293.21 5806.2 293.21 5806.2 429.04"/><line class="cls-4" x1="5875.2" y1="431.63" x2="5875.2" y2="391.63"/><path class="cls-3" d="M5875.2,349.21c15,0,22,21,22,45s-22,22-22,22-22,2-22-22S5860.2,349.21,5875.2,349.21Z"/><line class="cls-4" x1="5910.62" y1="431.63" x2="5910.62" y2="391.63"/><path class="cls-3" d="M5910.62,365.63c11.33,0,16.62,15.86,16.62,34s-16.62,16.61-16.62,16.61S5894,417.73,5894,399.61,5899.3,365.63,5910.62,365.63Z"/><path class="cls-3" d="M5959.15,340.21c15.69,0,23,22,23,47.07s-23,23-23,23-23,2.09-23-23S5943.46,340.21,5959.15,340.21Z"/><rect class="cls-6" x="4762.2" y="429.04" width="4762.2" height="81.37"/><line class="cls-4" x1="4762.2" y1="429.04" x2="9524.41" y2="429.04"/></g></g></svg>