<?xml version="1.0" encoding="utf-8"?>
<!-- Generator: Adobe Illustrator 22.1.0, SVG Export Plug-In . SVG Version: 6.00 Build 0)  -->
<svg version="1.1" id="Layer_1" xmlns="http://www.w3.org/2000/svg" xmlns:xlink="http://www.w3.org/1999/xlink" x="0px" y="0px"
	 viewBox="0 0 301.1 141.5" style="enable-background:new 0 0 301.1 141.5;" xml:space="preserve">
<style type="text/css">
	.st0{fill:#FFFFFF;stroke:#1B365D;stroke-width:5.6693;stroke-miterlimit:10;}
	.st1{fill:#FF8200;stroke:#1B365D;stroke-width:5.6693;stroke-miterlimit:10;}
	.st2{fill:none;stroke:#1B365D;stroke-width:5.6693;stroke-miterlimit:10;}
</style>
<g>
	<path class="st0" d="M284,60.3H258l-5.2-33.2c-0.4-2.6-2.6-4.6-5.3-4.6h-40.7v42.2v53.4h61.5H291c3.6,0,6.5-2.9,6.5-6.5v-38
		C297.5,66.3,291.5,60.3,284,60.3z M219.9,54.3V38.4c0-2.5,2-4.6,4.6-4.6h13.8c2.3,0,4.2,1.7,4.5,4l3,15.9c0.4,2.7-1.8,5.2-4.5,5.2
		h-16.8C222,58.9,219.9,56.8,219.9,54.3z"/>
	<rect x="3.1" y="3" class="st1" width="203.7" height="115.1"/>
	<circle class="st0" cx="240.1" cy="118.1" r="20.2"/>
	<circle class="st0" cx="240.1" cy="118.1" r="6.5"/>
	<rect x="3.1" y="88.1" class="st0" width="203.7" height="30.1"/>
	<circle class="st0" cx="34.4" cy="118.1" r="20.2"/>
	<circle class="st0" cx="34.4" cy="118.1" r="6.5"/>
	<circle class="st0" cx="80.5" cy="118.1" r="20.2"/>
	<circle class="st0" cx="80.5" cy="118.1" r="6.5"/>
	<path class="st2" d="M282.9,118.1v-10.9c0-5.1,4.1-9.3,9.3-9.3h5.3"/>
</g>
</svg>
